<?xml version="1.0" encoding="utf-8"?>
<!-- Generator: Adobe Illustrator 22.1.0, SVG Export Plug-In . SVG Version: 6.00 Build 0)  -->
<svg version="1.1" id="Calque_1" xmlns="http://www.w3.org/2000/svg" xmlns:xlink="http://www.w3.org/1999/xlink" x="0px" y="0px"
	 viewBox="0 0 256 348" style="enable-background:new 0 0 256 348;" xml:space="preserve">
<style type="text/css">
	.st0{fill:url(#SVGID_1_);}
	.st1{fill:#FFFFFF;}
	.st2{fill:#F6D2A2;}
	.st3{fill:#231F20;}
</style>
<linearGradient id="SVGID_1_" gradientUnits="userSpaceOnUse" x1="160.0886" y1="186.3643" x2="79.2021" y2="14.3742">
	<stop  offset="0" style="stop-color:#007ACC"/>
	<stop  offset="1" style="stop-color:#69D7E2"/>
</linearGradient>
<path class="st0" d="M199.4,1.6H59.6c-19.8,0-35.8,16-35.8,35.8v9.3v80.8v2.4v83.1h105.7h105.7v-83.1v-2.4V46.8v-9.3
	C235.2,17.7,219.1,1.6,199.4,1.6z"/>
<path class="st1" d="M121,138.1l0,5.7h9.1h9.1v25.8v25.8h6.4h6.4v-25.8v-25.8h9.1h9.1v-5.6c0-3.1-0.1-5.7-0.2-5.7
	c-0.1-0.1-11.1-0.1-24.5-0.1l-24.3,0.1L121,138.1z"/>
<path class="st1" d="M202.6,132.2c3.5,0.9,6.2,2.5,8.7,5c1.3,1.4,3.2,3.9,3.3,4.5c0,0.2-6,4.2-9.7,6.5c-0.1,0.1-0.7-0.5-1.3-1.4
	c-1.8-2.6-3.7-3.7-6.5-3.9c-4.2-0.3-6.9,1.9-6.9,5.6c0,1.1,0.2,1.7,0.6,2.6c0.9,1.9,2.7,3.1,8.1,5.4c10,4.3,14.2,7.1,16.9,11.1
	c3,4.5,3.6,11.7,1.6,17c-2.2,5.8-7.7,9.7-15.4,11c-2.4,0.4-8,0.4-10.6-0.1c-5.6-1-10.9-3.8-14.2-7.4c-1.3-1.4-3.8-5.1-3.6-5.4
	c0.1-0.1,0.6-0.4,1.3-0.8c0.6-0.4,3-1.7,5.2-3l4-2.3l0.8,1.2c1.2,1.8,3.7,4.2,5.3,5.1c4.4,2.3,10.5,2,13.6-0.7
	c1.3-1.2,1.8-2.4,1.8-4.2c0-1.6-0.2-2.3-1-3.5c-1.1-1.5-3.3-2.9-9.6-5.6c-7.2-3.1-10.3-5-13.1-8.1c-1.6-1.8-3.2-4.6-3.8-7
	c-0.5-2-0.7-6.9-0.2-8.9c1.5-6.9,6.7-11.8,14.3-13.2C194.5,131.4,200.2,131.6,202.6,132.2z"/>
<g>
	<path class="st1" d="M117.3,87.5c0.1,4.1,0.9,8.6,0.2,12.9c-1.1,2.1-3.2,2.3-5,3.1c-2.6-0.4-4.7-2.1-5.8-4.5
		c-0.6-4.9,0.2-9.5,0.4-14.4c0-0.2,3,0.1,5.8,0.9C115.2,86.2,117.3,87.4,117.3,87.5L117.3,87.5z"/>
	<path class="st1" d="M94.7,87.8c-2.2,8.5,3,22.3,11.5,11c-0.6-4.8,0.1-9.4,0.3-14.2C106.6,84.2,94.8,87.2,94.7,87.8L94.7,87.8z"/>
	<path d="M118.3,91.2c-0.2-2.4-0.2-3.4-0.2-4.6v-0.6l-0.6-0.2l-10.1-3.1v-0.6l-1,0.2h-0.1v0.1l-11.4,2.9l-0.4,0.1l-0.2,0.4
		c-1.8,4.2-1.4,10.6,0.9,14.6c2.6,4.5,6.7,4.6,11-0.6c1.2,2.3,3.4,3.9,6,4.3h0.2l0.2-0.1c0.3-0.2,0.6-0.2,1.2-0.5
		c0.1,0,0.1,0,0.2-0.1c2.3-0.8,3.3-1.4,4.1-3l0.1-0.1v-0.2c0.2-1.4,0.3-3,0.3-4.6C118.5,94.6,118.5,93.5,118.3,91.2L118.3,91.2z
		 M105.5,88.3c-0.1,1.4-0.2,2-0.2,2.8c-0.2,3-0.2,5.2,0.1,7.4c-3.8,4.8-6.7,4.8-8.7,1.2c-1.9-3.4-2.3-9-0.9-12.8l10.1-2.6
		C105.7,85.4,105.7,86.4,105.5,88.3L105.5,88.3z M116.7,100.1c-0.6,1-1.3,1.4-3.2,2.1c-0.1,0-0.1,0-0.2,0.1c-0.5,0.2-0.8,0.3-1,0.4
		c-2.2-0.4-4-1.8-4.9-3.8c-0.2-2.2-0.2-4.4-0.1-7.4c0.1-0.8,0.1-1.4,0.2-2.8c0.2-1.8,0.2-3,0.2-4l8.7,2.6c0,1,0.1,2,0.2,4.1
		c0.2,2.2,0.2,3.3,0.2,4.6C117,97.5,116.9,98.8,116.7,100.1L116.7,100.1z"/>
	<path class="st1" d="M46.5,52.6c7.4,28.7,53.2,21.3,51.5-7.4C95.9,10.7,39.4,17.3,46.5,52.6"/>
	<path d="M98.8,45c-0.5-8.3-4.2-14.8-10.2-18.9c-5.4-3.7-12.7-5.1-19.8-4.2c-7.1,1-13.7,4.2-18,9.2c-4.8,5.6-6.6,13-5,21.5l0.7-0.2
		l-0.7,0.2C53.3,82,100.5,74.9,98.8,45L98.8,45z M47.2,52.4c-1.6-8.1,0.2-15,4.6-20.2c4.1-4.7,10.2-7.8,17.1-8.7s13.6,0.5,18.7,4
		c5.7,3.8,9.1,9.8,9.6,17.8C98.9,73.2,54.3,80,47.2,52.4L47.2,52.4z"/>
	<ellipse cx="59.1" cy="47.9" rx="7.8" ry="8.4"/>
	<ellipse class="st1" cx="62.7" cy="49.8" rx="1.8" ry="2.2"/>
	<path class="st1" d="M110.8,47.2c5.7,32.9,59.5,24.2,51.7-9C155.6,8.5,108.9,16.7,110.8,47.2"/>
	<path d="M163.3,38.1c-7.1-30.7-55.2-22.3-53.2,9.2v0.1c2.6,15.5,16.5,23.5,31.8,20.9c7-1.2,13.2-4.6,17.3-9.5
		C163.6,53.2,165.2,46.1,163.3,38.1L163.3,38.1z M157.9,57.8c-3.8,4.6-9.7,7.8-16.3,9c-14.5,2.4-27.5-5-30-19.6
		c-1.8-29.6,43.6-37.6,50.3-8.7C163.6,46,162.2,52.7,157.9,57.8L157.9,57.8z"/>
	<ellipse cx="124" cy="45.8" rx="7.6" ry="8.4"/>
	<ellipse class="st1" cx="127.6" cy="47.7" rx="1.8" ry="2.2"/>
	<path class="st2" d="M96.3,70.5c-6.3,0.6-11.5,8-8.2,13.9c4.3,7.8,14-0.7,20,0.1c7,0.2,12.7,7.4,18.2,1.3
		c6.2-6.7-2.6-13.3-9.6-16.2L96.3,70.5L96.3,70.5z"/>
	<path class="st3" d="M127.2,75.8c-2.2-2.7-5.9-5.2-10-6.9l-0.2-0.1h-0.2l-20.5,0.8c-7.1,0.6-12.3,8.9-8.8,15.1
		c1.4,2.4,3.2,3.6,5.7,3.8c1.8,0.1,3.8-0.3,6.7-1.4c0.2-0.1,0.6-0.2,1-0.3c4-1.4,5.6-1.8,7.2-1.5h0.1c1.9,0,3.5,0.6,6.6,1.8
		c3.4,1.4,4.4,1.8,6.1,1.9c2.3,0.2,4.3-0.6,6.2-2.6C130.1,83,130,79.3,127.2,75.8L127.2,75.8z M125.8,85.3c-1.5,1.7-3,2.2-4.9,2.2
		c-1.4-0.1-2.4-0.5-5.6-1.8c-3.2-1.4-5-1.8-7-1.9c-2-0.2-3.7,0.2-7.9,1.6c-0.4,0.2-0.7,0.2-1,0.3c-5.8,2-8.6,1.8-10.6-1.7
		c-2.9-5.2,1.5-12.3,7.5-12.8l20.3-0.8c3.8,1.6,7.3,3.9,9.3,6.4C128.3,79.7,128.4,82.6,125.8,85.3L125.8,85.3z"/>
	<path d="M118.4,67c-2.5-9.1-23.3-7.8-22.8,3.1C96.6,78.3,120.8,76.1,118.4,67L118.4,67z"/>
</g>
</svg>
